<mxfile host="app.diagrams.net" agent="Mozilla/5.0 (Windows NT 10.0; Win64; x64) AppleWebKit/537.36 (KHTML, like Gecko) Chrome/129.0.0.0 Safari/537.36" version="24.7.14">
  <diagram name="Page-1" id="CLNC4KCHA7KVh3pvTEG1">
    <mxGraphModel grid="1" page="1" gridSize="10" guides="1" tooltips="1" connect="1" arrows="1" fold="1" pageScale="1" pageWidth="850" pageHeight="1100" math="0" shadow="0">
      <root>
        <mxCell id="0" />
        <mxCell id="1" parent="0" />
        <mxCell id="6DRf6FwNCZucres2GNVQ-1" value="" style="rounded=0;whiteSpace=wrap;html=1;" vertex="1" parent="1">
          <mxGeometry x="240" y="170" width="350" height="390" as="geometry" />
        </mxCell>
        <mxCell id="6DRf6FwNCZucres2GNVQ-2" value="Guest&lt;div&gt;&lt;br&gt;&lt;/div&gt;" style="shape=umlActor;verticalLabelPosition=bottom;verticalAlign=top;html=1;" vertex="1" parent="1">
          <mxGeometry x="90" y="310" width="70" height="130" as="geometry" />
        </mxCell>
        <mxCell id="6DRf6FwNCZucres2GNVQ-4" value="Hotel System" style="shape=umlActor;verticalLabelPosition=bottom;verticalAlign=top;html=1;" vertex="1" parent="1">
          <mxGeometry x="670" y="305" width="70" height="140" as="geometry" />
        </mxCell>
        <mxCell id="6DRf6FwNCZucres2GNVQ-5" value="&lt;font style=&quot;font-size: 16px;&quot;&gt;Make reservation&lt;/font&gt;" style="ellipse;whiteSpace=wrap;html=1;" vertex="1" parent="1">
          <mxGeometry x="317.5" y="220" width="195" height="70" as="geometry" />
        </mxCell>
        <mxCell id="6DRf6FwNCZucres2GNVQ-6" value="&lt;font style=&quot;font-size: 16px;&quot;&gt;Modify reservation&lt;/font&gt;" style="ellipse;whiteSpace=wrap;html=1;" vertex="1" parent="1">
          <mxGeometry x="317.5" y="330" width="195" height="70" as="geometry" />
        </mxCell>
        <mxCell id="6DRf6FwNCZucres2GNVQ-7" value="" style="endArrow=none;html=1;rounded=0;entryX=0;entryY=0.5;entryDx=0;entryDy=0;" edge="1" parent="1" target="6DRf6FwNCZucres2GNVQ-5">
          <mxGeometry width="50" height="50" relative="1" as="geometry">
            <mxPoint x="170" y="360" as="sourcePoint" />
            <mxPoint x="450" y="320" as="targetPoint" />
          </mxGeometry>
        </mxCell>
        <mxCell id="6DRf6FwNCZucres2GNVQ-8" value="" style="endArrow=none;html=1;rounded=0;entryX=0;entryY=0.5;entryDx=0;entryDy=0;" edge="1" parent="1" target="6DRf6FwNCZucres2GNVQ-6">
          <mxGeometry width="50" height="50" relative="1" as="geometry">
            <mxPoint x="170" y="360" as="sourcePoint" />
            <mxPoint x="328" y="265" as="targetPoint" />
          </mxGeometry>
        </mxCell>
        <mxCell id="6DRf6FwNCZucres2GNVQ-9" value="" style="endArrow=none;html=1;rounded=0;entryX=1;entryY=0.5;entryDx=0;entryDy=0;" edge="1" parent="1" target="6DRf6FwNCZucres2GNVQ-5">
          <mxGeometry width="50" height="50" relative="1" as="geometry">
            <mxPoint x="650" y="360" as="sourcePoint" />
            <mxPoint x="450" y="320" as="targetPoint" />
          </mxGeometry>
        </mxCell>
        <mxCell id="6DRf6FwNCZucres2GNVQ-10" value="" style="endArrow=none;html=1;rounded=0;entryX=1;entryY=0.5;entryDx=0;entryDy=0;" edge="1" parent="1" target="6DRf6FwNCZucres2GNVQ-6">
          <mxGeometry width="50" height="50" relative="1" as="geometry">
            <mxPoint x="650" y="360" as="sourcePoint" />
            <mxPoint x="523" y="265" as="targetPoint" />
          </mxGeometry>
        </mxCell>
        <mxCell id="6DRf6FwNCZucres2GNVQ-11" value="&lt;font style=&quot;font-size: 16px;&quot;&gt;Cancel reservation&lt;/font&gt;" style="ellipse;whiteSpace=wrap;html=1;" vertex="1" parent="1">
          <mxGeometry x="317.5" y="440" width="195" height="70" as="geometry" />
        </mxCell>
        <mxCell id="6DRf6FwNCZucres2GNVQ-12" value="" style="endArrow=none;html=1;rounded=0;entryX=0;entryY=0.5;entryDx=0;entryDy=0;" edge="1" parent="1" target="6DRf6FwNCZucres2GNVQ-11">
          <mxGeometry width="50" height="50" relative="1" as="geometry">
            <mxPoint x="170" y="360" as="sourcePoint" />
            <mxPoint x="328" y="375" as="targetPoint" />
          </mxGeometry>
        </mxCell>
        <mxCell id="6DRf6FwNCZucres2GNVQ-13" value="" style="endArrow=none;html=1;rounded=0;entryX=1;entryY=0.5;entryDx=0;entryDy=0;" edge="1" parent="1" target="6DRf6FwNCZucres2GNVQ-11">
          <mxGeometry width="50" height="50" relative="1" as="geometry">
            <mxPoint x="650" y="360" as="sourcePoint" />
            <mxPoint x="523" y="375" as="targetPoint" />
          </mxGeometry>
        </mxCell>
      </root>
    </mxGraphModel>
  </diagram>
</mxfile>
